<svg width="400" height="400" viewBox="0 0 400 400" fill="none" xmlns="http://www.w3.org/2000/svg">
<g clip-path="url(#clip0_7_2)">
<path d="M400 0H0V400H400V0Z" fill="url(#paint0_linear_7_2)"/>
<path opacity="0.9" d="M50 300C100 250 129.333 156 200 220C279.5 292 300 180 350 150" stroke="#80FF32" stroke-width="15" stroke-linecap="round"/>
<g opacity="0.9" filter="url(#filter0_f_7_2)">
<path d="M50 300C100 250 129.333 156 200 220C279.5 292 300 180 350 150" stroke="#80FF32" stroke-width="15" stroke-linecap="round"/>
</g>
<path d="M242.183 163.92L238.983 170.32H209.223L195.303 136.24C191.356 128.24 187.036 122.587 182.343 119.28C177.756 115.973 171.41 114.32 163.303 114.32H157.543L160.903 107.76H181.063C187.356 107.76 192.316 105.787 195.943 101.84C199.57 97.7867 201.383 92.1867 201.383 85.04V82.64H156.743L160.103 76.08H200.743C199.463 68.5067 196.583 62.48 192.103 58C187.623 53.4133 181.596 51.12 174.023 51.12H156.903L160.263 44.56H244.423L241.063 51.12H207.783C212.37 53.7867 215.996 57.3067 218.663 61.68C221.436 65.9467 222.93 70.6933 223.143 75.92H244.743L241.383 82.48H222.503C221.33 87.0667 218.823 91.4933 214.983 95.76C211.25 100.027 206.716 103.707 201.383 106.8C196.156 109.787 190.823 111.867 185.383 113.04L210.983 119.12L225.703 155.92L242.183 163.92Z" fill="white"/>
</g>
<defs>
<filter id="filter0_f_7_2" x="1.5" y="101.499" width="397.001" height="247.001" filterUnits="userSpaceOnUse" color-interpolation-filters="sRGB">
<feFlood flood-opacity="0" result="BackgroundImageFix"/>
<feBlend mode="normal" in="SourceGraphic" in2="BackgroundImageFix" result="shape"/>
<feGaussianBlur stdDeviation="20.5" result="effect1_foregroundBlur_7_2"/>
</filter>
<linearGradient id="paint0_linear_7_2" x1="0" y1="0" x2="40000" y2="40000" gradientUnits="userSpaceOnUse">
<stop stop-color="#111111"/>
<stop offset="1" stop-color="#1E1E1E"/>
</linearGradient>
<clipPath id="clip0_7_2">
<path d="M0 200C0 89.5431 89.5431 0 200 0V0C310.457 0 400 89.5431 400 200V200C400 310.457 310.457 400 200 400V400C89.5431 400 0 310.457 0 200V200Z" fill="white"/>
</clipPath>
</defs>
</svg>
